<?xml version="1.0" encoding="utf-8"?>
<!-- Generator: Adobe Illustrator 27.4.0, SVG Export Plug-In . SVG Version: 6.00 Build 0)  -->
<svg version="1.1" id="Glyph" xmlns="http://www.w3.org/2000/svg" xmlns:xlink="http://www.w3.org/1999/xlink" x="0px" y="0px"
	 viewBox="0 0 36 36" style="enable-background:new 0 0 36 36;" xml:space="preserve">
<style type="text/css">
	.st0{fill:#58595B;}
</style>
<path id="XMLID_223_" class="st0" d="M27.5,25.2l-4.2-4.2c0.8-1.3,1.4-2.9,1.4-4.6c0-4.6-3.8-8.3-8.3-8.3S8,11.8,8,16.3
	s3.8,8.3,8.3,8.3c1.7,0,3.2-0.5,4.6-1.4l4.2,4.2c0.7,0.7,1.7,0.7,2.3,0S28.2,25.8,27.5,25.2z M10.5,16.3c0-3.2,2.6-5.8,5.8-5.8
	s5.8,2.6,5.8,5.8s-2.6,5.8-5.8,5.8S10.5,19.6,10.5,16.3z"/>
</svg>
