<?xml version="1.0" encoding="utf-8"?>
<!-- Generator: Adobe Illustrator 26.3.1, SVG Export Plug-In . SVG Version: 6.00 Build 0)  -->
<svg version="1.1" id="Layer_1" xmlns="http://www.w3.org/2000/svg" xmlns:xlink="http://www.w3.org/1999/xlink" x="0px" y="0px"
	 viewBox="0 0 25 33.07" style="enable-background:new 0 0 25 33.07;" xml:space="preserve">
<style type="text/css">
	.st0{fill:#1D71B8;}
</style>
<g>
	<path class="st0" d="M16.08,6.21c0,3.43-2.78,6.21-6.21,6.21c-3.43,0-6.21-2.78-6.21-6.21C3.66,2.78,6.44,0,9.87,0
		C13.3,0,16.08,2.78,16.08,6.21"/>
	<path class="st0" d="M7.38,21.69c0,1.85-1.5,3.35-3.35,3.35c-1.85,0-3.34-1.5-3.34-3.35c0-1.85,1.5-3.34,3.34-3.34
		C5.89,18.35,7.38,19.85,7.38,21.69"/>
	<path class="st0" d="M25,20.73c0,1.21-0.98,2.2-2.2,2.2c-1.21,0-2.2-0.98-2.2-2.2c0-1.21,0.98-2.2,2.2-2.2
		C24.02,18.53,25,19.52,25,20.73"/>
	<path class="st0" d="M4.4,13.67c0,1.22-0.98,2.2-2.2,2.2c-1.21,0-2.2-0.98-2.2-2.2c0-1.21,0.99-2.2,2.2-2.2
		C3.41,11.48,4.4,12.46,4.4,13.67"/>
	<path class="st0" d="M24.01,12.9c0,1.85-1.5,3.35-3.35,3.35c-1.85,0-3.35-1.5-3.35-3.35c0-1.85,1.5-3.35,3.35-3.35
		C22.51,9.56,24.01,11.06,24.01,12.9"/>
	<path class="st0" d="M20.38,26.86c0,3.43-2.78,6.21-6.21,6.21c-3.43,0-6.21-2.78-6.21-6.21c0-3.43,2.78-6.21,6.21-6.21
		C17.6,20.64,20.38,23.43,20.38,26.86"/>
</g>
</svg>
