<?xml version="1.0" encoding="utf-8"?>
<!-- Generator: Adobe Illustrator 26.3.1, SVG Export Plug-In . SVG Version: 6.00 Build 0)  -->
<svg version="1.1" id="Layer_1" xmlns="http://www.w3.org/2000/svg" xmlns:xlink="http://www.w3.org/1999/xlink" x="0px" y="0px"
	 viewBox="0 0 150 46.5" style="enable-background:new 0 0 150 46.5;" xml:space="preserve">
<style type="text/css">
	.st0{fill:#1D71B8;}
</style>
<g>
	<path class="st0" d="M22.61,8.74c0,4.82-3.91,8.73-8.73,8.73c-4.82,0-8.73-3.91-8.73-8.73C5.14,3.92,9.05,0,13.87,0
		C18.7,0,22.61,3.92,22.61,8.74"/>
	<path class="st0" d="M10.38,30.5c0,2.6-2.11,4.7-4.7,4.7c-2.6,0-4.7-2.11-4.7-4.7c0-2.6,2.11-4.7,4.7-4.7
		C8.27,25.8,10.38,27.91,10.38,30.5"/>
	<path class="st0" d="M35.15,29.15c0,1.71-1.38,3.09-3.09,3.09c-1.71,0-3.09-1.38-3.09-3.09c0-1.71,1.38-3.09,3.09-3.09
		C33.76,26.06,35.15,27.44,35.15,29.15"/>
	<path class="st0" d="M6.18,19.23c0,1.71-1.38,3.09-3.09,3.09C1.39,22.32,0,20.94,0,19.23c0-1.71,1.38-3.09,3.09-3.09
		C4.8,16.14,6.18,17.52,6.18,19.23"/>
	<path class="st0" d="M33.76,18.14c0,2.6-2.11,4.7-4.7,4.7c-2.6,0-4.7-2.11-4.7-4.7c0-2.6,2.11-4.7,4.7-4.7
		C31.65,13.44,33.76,15.55,33.76,18.14"/>
	<path class="st0" d="M28.65,37.76c0,4.82-3.91,8.73-8.73,8.73c-4.82,0-8.73-3.91-8.73-8.73c0-4.82,3.91-8.73,8.73-8.73
		C24.74,29.03,28.65,32.94,28.65,37.76"/>
	<g>
		<path class="st0" d="M61.03,25.52c-0.36,5.16-3.79,8.27-9.3,8.27c-6.19,0-10.15-4.57-10.15-12.36c0-7.72,4.02-12.22,10.21-12.22
			c5.32,0,8.79,2.95,9.01,7.42H58.7c-0.36-3.4-2.98-5.51-6.91-5.51c-4.96,0-8.01,3.63-8.01,10.28c0,6.71,3.15,10.47,8.07,10.47
			c4.15,0,6.78-2.37,7.07-6.36H61.03z"/>
		<rect x="67.92" y="9.82" class="st0" width="2.14" height="23.31"/>
		<polygon class="st0" points="78.47,9.82 80.83,9.82 93.93,29.83 93.93,9.82 96.07,9.82 96.07,33.14 93.71,33.14 80.61,13.13 
			80.61,33.14 78.47,33.14 		"/>
		<polygon class="st0" points="104.39,9.82 107.4,9.82 115.09,30.35 122.64,9.82 125.66,9.82 125.66,33.14 123.52,33.14 
			123.52,12.81 116.09,33.14 114.12,33.14 106.53,12.81 106.53,33.14 104.39,33.14 		"/>
		<polygon class="st0" points="134.04,9.82 149.31,9.82 149.31,11.74 136.18,11.74 136.18,20.2 148.18,20.2 148.18,22.11 
			136.18,22.11 136.18,31.22 149.7,31.22 149.7,33.14 134.04,33.14 		"/>
		<g>
			<path class="st0" d="M46.37,40.17c-0.07,1.03-0.75,1.65-1.85,1.65c-1.23,0-2.02-0.91-2.02-2.46c0-1.53,0.8-2.43,2.03-2.43
				c1.06,0,1.75,0.59,1.8,1.48h-0.42c-0.07-0.68-0.59-1.1-1.38-1.1c-0.99,0-1.59,0.72-1.59,2.05c0,1.34,0.62,2.08,1.61,2.08
				c0.82,0,1.35-0.47,1.41-1.26H46.37z"/>
			<path class="st0" d="M47.34,40.11c0,0.84,0.44,1.33,1.09,1.33c0.52,0,0.9-0.29,0.98-0.78h0.39c-0.08,0.68-0.63,1.12-1.39,1.12
				c-0.9,0-1.46-0.64-1.46-1.75c0-1.13,0.56-1.78,1.47-1.78c0.89,0,1.43,0.61,1.43,1.7v0.13h-2.5V40.11z M49.44,39.77
				c-0.03-0.74-0.43-1.18-1.03-1.18c-0.6,0-1.03,0.44-1.07,1.18H49.44z"/>
			<path class="st0" d="M50.53,38.34h0.37v0.54c0.25-0.41,0.62-0.62,1.11-0.62c0.46,0,0.83,0.18,1.01,0.47
				c0.13,0.21,0.14,0.47,0.14,0.83v2.14h-0.39V39.6c0-0.68-0.15-1-0.83-1c-0.61,0-1.02,0.42-1.02,1.12v1.97h-0.39V38.34z"/>
			<path class="st0" d="M54.52,38.34h0.62v0.32h-0.62v2.44c0,0.24,0.03,0.36,0.25,0.36c0.1,0,0.23-0.03,0.38-0.06v0.31
				c-0.18,0.04-0.33,0.07-0.48,0.07c-0.43,0-0.53-0.22-0.53-0.68v-2.44h-0.46v-0.32h0.46v-0.96h0.39V38.34z"/>
			<path class="st0" d="M55.76,38.34h0.37v0.59c0.2-0.46,0.55-0.67,1.03-0.67h0.04v0.4h-0.05c-0.66,0-1.01,0.4-1.01,1.18v1.86h-0.39
				V38.34z"/>
			<path class="st0" d="M59.11,38.25c0.98,0,1.54,0.64,1.54,1.76c0,1.12-0.57,1.76-1.54,1.76c-0.97,0-1.54-0.63-1.54-1.76
				C57.58,38.89,58.14,38.25,59.11,38.25 M59.11,41.43c0.72,0,1.14-0.5,1.14-1.42c0-0.92-0.43-1.42-1.14-1.42
				c-0.71,0-1.14,0.5-1.14,1.42C57.98,40.93,58.4,41.43,59.11,41.43"/>
			<path class="st0" d="M65.94,41.69h-0.38v-0.57c-0.26,0.44-0.66,0.66-1.18,0.66c-0.88,0-1.46-0.65-1.46-1.76
				c0-1.11,0.59-1.76,1.49-1.76c0.53,0,0.92,0.23,1.16,0.67v-1.87h0.38V41.69z M64.45,41.44c0.72,0,1.13-0.5,1.13-1.42
				c0-0.92-0.42-1.42-1.13-1.42c-0.73,0-1.14,0.5-1.14,1.42C63.3,40.92,63.74,41.44,64.45,41.44"/>
			<path class="st0" d="M67.05,40.11c0,0.84,0.44,1.33,1.08,1.33c0.52,0,0.9-0.29,0.98-0.78h0.39c-0.08,0.68-0.63,1.12-1.39,1.12
				c-0.9,0-1.46-0.64-1.46-1.75c0-1.13,0.56-1.78,1.47-1.78c0.89,0,1.43,0.61,1.43,1.7v0.13h-2.5V40.11z M69.15,39.77
				c-0.03-0.74-0.43-1.18-1.04-1.18c-0.6,0-1.03,0.44-1.06,1.18H69.15z"/>
			<rect x="72.07" y="37.05" class="st0" width="0.43" height="4.64"/>
			<path class="st0" d="M73.49,38.34h0.38v0.54c0.25-0.41,0.62-0.62,1.11-0.62c0.46,0,0.83,0.18,1.01,0.47
				c0.13,0.21,0.14,0.47,0.14,0.83v2.14h-0.39V39.6c0-0.68-0.15-1-0.83-1c-0.61,0-1.02,0.42-1.02,1.12v1.97h-0.39V38.34z"/>
			<polygon class="st0" points="76.55,38.34 76.97,38.34 78.04,41.22 79.09,38.34 79.5,38.34 78.24,41.69 77.81,41.69 			"/>
			<path class="st0" d="M80.19,40.11c0,0.84,0.44,1.33,1.09,1.33c0.52,0,0.9-0.29,0.98-0.78h0.39c-0.08,0.68-0.63,1.12-1.39,1.12
				c-0.91,0-1.46-0.64-1.46-1.75c0-1.13,0.56-1.78,1.47-1.78c0.89,0,1.43,0.61,1.43,1.7v0.13h-2.5V40.11z M82.29,39.77
				c-0.03-0.74-0.43-1.18-1.03-1.18c-0.6,0-1.03,0.44-1.07,1.18H82.29z"/>
			<path class="st0" d="M83.64,40.64c0.01,0.46,0.37,0.79,0.88,0.79c0.58,0,0.9-0.26,0.9-0.63c0-0.41-0.31-0.48-0.9-0.62
				c-0.8-0.19-1.21-0.38-1.21-0.96c0-0.57,0.46-0.97,1.16-0.97c0.76,0,1.22,0.4,1.27,1.06h-0.4c-0.03-0.45-0.34-0.72-0.87-0.72
				c-0.47,0-0.75,0.24-0.75,0.58c0,0.49,0.39,0.53,1.09,0.7c0.71,0.17,1.02,0.4,1.02,0.94c0,0.55-0.49,0.96-1.28,0.96
				c-0.78,0-1.28-0.44-1.3-1.14H83.64z"/>
			<path class="st0" d="M87.06,38.34h0.62v0.32h-0.62v2.44c0,0.24,0.03,0.36,0.24,0.36c0.1,0,0.22-0.03,0.37-0.06v0.31
				c-0.18,0.04-0.33,0.07-0.48,0.07c-0.43,0-0.53-0.22-0.53-0.68v-2.44h-0.46v-0.32h0.46v-0.96h0.39V38.34z"/>
			<path class="st0" d="M88.34,37.05h0.39v0.58h-0.39V37.05z M88.34,38.34h0.39v3.35h-0.39V38.34z"/>
			<path class="st0" d="M92.5,41.52c0,1.02-0.54,1.55-1.59,1.55c-0.79,0-1.3-0.39-1.34-0.98h0.4c0.04,0.4,0.36,0.64,0.94,0.64
				c0.8,0,1.21-0.41,1.21-1.2v-0.41c-0.26,0.45-0.65,0.67-1.16,0.67c-0.9,0-1.49-0.65-1.49-1.76c0-1.1,0.6-1.76,1.49-1.76
				c0.52,0,0.91,0.22,1.16,0.67v-0.58h0.39V41.52z M91.01,41.44c0.7,0,1.14-0.5,1.14-1.42c0-0.92-0.43-1.42-1.14-1.42
				c-0.72,0-1.14,0.5-1.14,1.42C89.87,40.92,90.32,41.44,91.01,41.44"/>
			<path class="st0" d="M94.31,41.77c-0.68,0-1.11-0.39-1.11-0.97c0-0.39,0.19-0.68,0.54-0.84c0.35-0.16,0.76-0.17,1.21-0.21
				c0.47-0.1,0.59-0.09,0.59-0.43c0-0.51-0.22-0.73-0.83-0.73c-0.6,0-0.92,0.25-0.95,0.74h-0.38c0.01-0.66,0.51-1.08,1.33-1.08
				c0.8,0,1.23,0.35,1.23,1.02v1.83c0,0.22,0.01,0.31,0.24,0.31c0.03,0,0.08,0,0.14-0.01v0.29c-0.13,0.03-0.22,0.03-0.28,0.03
				c-0.32,0-0.48-0.15-0.48-0.46V41.2C95.19,41.59,94.78,41.77,94.31,41.77 M94.35,40.09c-0.49,0.13-0.75,0.37-0.75,0.71
				c0,0.38,0.29,0.63,0.76,0.63c0.7,0,1.18-0.39,1.18-1.04l-0.01-0.47C95.25,40.04,94.84,40.06,94.35,40.09"/>
			<path class="st0" d="M99.52,40.53c-0.07,0.77-0.6,1.24-1.4,1.24c-0.89,0-1.47-0.65-1.47-1.73c0-1.13,0.58-1.78,1.49-1.78
				c0.75,0,1.28,0.47,1.32,1.15H99.1c-0.06-0.49-0.45-0.81-0.95-0.81c-0.65,0-1.09,0.51-1.09,1.41c0,0.91,0.44,1.43,1.1,1.43
				c0.52,0,0.89-0.33,0.97-0.9H99.52z"/>
			<path class="st0" d="M100.2,37.05h0.39v0.58h-0.39V37.05z M100.2,38.34h0.39v3.35h-0.39V38.34z"/>
			<path class="st0" d="M102.86,38.25c0.97,0,1.54,0.64,1.54,1.76c0,1.12-0.57,1.76-1.54,1.76c-0.97,0-1.54-0.63-1.54-1.76
				C101.32,38.89,101.89,38.25,102.86,38.25 M102.86,41.43c0.71,0,1.14-0.5,1.14-1.42c0-0.92-0.43-1.42-1.14-1.42
				c-0.71,0-1.14,0.5-1.14,1.42C101.72,40.93,102.15,41.43,102.86,41.43"/>
			<path class="st0" d="M105.09,38.34h0.37v0.54c0.25-0.41,0.62-0.62,1.11-0.62c0.46,0,0.83,0.18,1.01,0.47
				c0.13,0.21,0.13,0.47,0.13,0.83v2.14h-0.39V39.6c0-0.68-0.15-1-0.83-1c-0.61,0-1.02,0.42-1.02,1.12v1.97h-0.39V38.34z"/>
			<path class="st0" d="M108.81,40.11c0,0.84,0.44,1.33,1.09,1.33c0.52,0,0.9-0.29,0.98-0.78h0.39c-0.08,0.68-0.63,1.12-1.39,1.12
				c-0.9,0-1.46-0.64-1.46-1.75c0-1.13,0.56-1.78,1.47-1.78c0.89,0,1.43,0.61,1.43,1.7v0.13h-2.5V40.11z M110.91,39.77
				c-0.03-0.74-0.43-1.18-1.03-1.18c-0.6,0-1.02,0.44-1.07,1.18H110.91z"/>
			<path class="st0" d="M112.25,40.64c0.01,0.46,0.37,0.79,0.88,0.79c0.57,0,0.9-0.26,0.9-0.63c0-0.41-0.31-0.48-0.9-0.62
				c-0.8-0.19-1.21-0.38-1.21-0.96c0-0.57,0.46-0.97,1.15-0.97c0.76,0,1.22,0.4,1.27,1.06h-0.4c-0.02-0.45-0.34-0.72-0.87-0.72
				c-0.47,0-0.75,0.24-0.75,0.58c0,0.49,0.39,0.53,1.09,0.7c0.71,0.17,1.02,0.4,1.02,0.94c0,0.55-0.49,0.96-1.28,0.96
				c-0.78,0-1.28-0.44-1.3-1.14H112.25z"/>
			<polygon class="st0" points="116.96,37.05 117.56,37.05 119.09,41.13 120.6,37.05 121.2,37.05 121.2,41.69 120.77,41.69 
				120.77,37.64 119.29,41.69 118.9,41.69 117.39,37.64 117.39,41.69 116.96,41.69 			"/>
			<path class="st0" d="M122.38,40.11c0,0.84,0.44,1.33,1.08,1.33c0.52,0,0.9-0.29,0.98-0.78h0.39c-0.08,0.68-0.63,1.12-1.4,1.12
				c-0.9,0-1.46-0.64-1.46-1.75c0-1.13,0.56-1.78,1.47-1.78c0.89,0,1.43,0.61,1.43,1.7v0.13h-2.5V40.11z M124.48,39.77
				c-0.03-0.74-0.43-1.18-1.03-1.18c-0.6,0-1.02,0.44-1.06,1.18H124.48z"/>
			<path class="st0" d="M126.08,38.34h0.62v0.32h-0.62v2.44c0,0.24,0.03,0.36,0.24,0.36c0.11,0,0.23-0.03,0.37-0.06v0.31
				c-0.17,0.04-0.33,0.07-0.48,0.07c-0.43,0-0.53-0.22-0.53-0.68v-2.44h-0.46v-0.32h0.46v-0.96h0.39V38.34z"/>
			<path class="st0" d="M128.26,41.77c-0.68,0-1.11-0.39-1.11-0.97c0-0.39,0.19-0.68,0.54-0.84c0.36-0.16,0.76-0.17,1.21-0.21
				c0.47-0.1,0.59-0.09,0.59-0.43c0-0.51-0.22-0.73-0.83-0.73c-0.6,0-0.92,0.25-0.95,0.74h-0.38c0.01-0.66,0.51-1.08,1.33-1.08
				c0.8,0,1.23,0.35,1.23,1.02v1.83c0,0.22,0.01,0.31,0.24,0.31c0.03,0,0.08,0,0.14-0.01v0.29c-0.12,0.03-0.22,0.03-0.28,0.03
				c-0.32,0-0.48-0.15-0.48-0.46V41.2C129.14,41.59,128.73,41.77,128.26,41.77 M128.3,40.09c-0.49,0.13-0.75,0.37-0.75,0.71
				c0,0.38,0.29,0.63,0.76,0.63c0.7,0,1.18-0.39,1.18-1.04l-0.01-0.47C129.2,40.04,128.79,40.06,128.3,40.09"/>
			<path class="st0" d="M130.78,37.05h0.39v1.89c0.25-0.45,0.64-0.68,1.17-0.68c0.9,0,1.49,0.65,1.49,1.76
				c0,1.11-0.6,1.76-1.51,1.76c-0.52,0-0.92-0.23-1.15-0.67v0.58h-0.39V37.05z M132.28,41.44c0.72,0,1.14-0.5,1.14-1.42
				c0-0.92-0.43-1.42-1.14-1.42c-0.72,0-1.14,0.5-1.14,1.42C131.15,40.91,131.57,41.44,132.28,41.44"/>
			<path class="st0" d="M135.87,38.25c0.98,0,1.54,0.64,1.54,1.76c0,1.12-0.57,1.76-1.54,1.76c-0.97,0-1.54-0.63-1.54-1.76
				C134.34,38.89,134.9,38.25,135.87,38.25 M135.87,41.43c0.72,0,1.14-0.5,1.14-1.42c0-0.92-0.42-1.42-1.14-1.42
				c-0.71,0-1.14,0.5-1.14,1.42C134.74,40.93,135.16,41.43,135.87,41.43 M135.48,37.91l0.66-1.1h0.48l-0.85,1.1H135.48z"/>
			<rect x="138.15" y="37.05" class="st0" width="0.39" height="4.64"/>
			<path class="st0" d="M139.48,37.05h0.39v0.58h-0.39V37.05z M139.48,38.34h0.39v3.35h-0.39V38.34z"/>
			<path class="st0" d="M143.46,40.53c-0.07,0.77-0.6,1.24-1.4,1.24c-0.89,0-1.46-0.65-1.46-1.73c0-1.13,0.58-1.78,1.49-1.78
				c0.75,0,1.28,0.47,1.32,1.15h-0.37c-0.07-0.49-0.45-0.81-0.95-0.81c-0.64,0-1.09,0.51-1.09,1.41c0,0.91,0.45,1.43,1.1,1.43
				c0.52,0,0.89-0.33,0.98-0.9H143.46z"/>
			<path class="st0" d="M145.04,41.77c-0.68,0-1.11-0.39-1.11-0.97c0-0.39,0.19-0.68,0.54-0.84c0.35-0.16,0.76-0.17,1.21-0.21
				c0.47-0.1,0.59-0.09,0.59-0.43c0-0.51-0.22-0.73-0.83-0.73c-0.6,0-0.92,0.25-0.95,0.74h-0.38c0.01-0.66,0.51-1.08,1.33-1.08
				c0.8,0,1.23,0.35,1.23,1.02v1.83c0,0.22,0,0.31,0.24,0.31c0.03,0,0.08,0,0.14-0.01v0.29c-0.12,0.03-0.22,0.03-0.28,0.03
				c-0.32,0-0.48-0.15-0.48-0.46V41.2C145.93,41.59,145.52,41.77,145.04,41.77 M145.08,40.09c-0.49,0.13-0.75,0.37-0.75,0.71
				c0,0.38,0.29,0.63,0.76,0.63c0.7,0,1.18-0.39,1.18-1.04l-0.01-0.47C145.98,40.04,145.57,40.06,145.08,40.09"/>
			<path class="st0" d="M147.82,40.64c0.01,0.46,0.37,0.79,0.89,0.79c0.57,0,0.9-0.26,0.9-0.63c0-0.41-0.31-0.48-0.9-0.62
				c-0.8-0.19-1.21-0.38-1.21-0.96c0-0.57,0.47-0.97,1.16-0.97c0.76,0,1.22,0.4,1.27,1.06h-0.4c-0.03-0.45-0.34-0.72-0.87-0.72
				c-0.47,0-0.75,0.24-0.75,0.58c0,0.49,0.4,0.53,1.09,0.7c0.71,0.17,1.02,0.4,1.02,0.94c0,0.55-0.49,0.96-1.28,0.96
				c-0.78,0-1.29-0.44-1.3-1.14H147.82z"/>
		</g>
	</g>
</g>
</svg>
